<?xml version="1.0" encoding="UTF-8"?> <!-- Generator: Adobe Illustrator 24.3.0, SVG Export Plug-In . SVG Version: 6.00 Build 0) --> <svg xmlns="http://www.w3.org/2000/svg" xmlns:xlink="http://www.w3.org/1999/xlink" version="1.1" id="Layer_1" x="0px" y="0px" viewBox="0 0 144 72" style="enable-background:new 0 0 144 72;" xml:space="preserve"> <style type="text/css"> .st0{fill:#FFFFFF;} .st1{fill:#EC8E24;} </style> <g> <g> <path class="st0" d="M21.52,41.85c-0.97,0.77-2.17,1.39-3.62,1.85c-1.45,0.47-2.87,0.7-4.26,0.7c-2.49,0-4.66-0.46-6.51-1.38 c-1.84-0.92-3.27-2.24-4.28-3.96s-1.52-3.8-1.52-6.24c0-2.44,0.55-4.52,1.64-6.24c1.1-1.72,2.54-3.03,4.31-3.93 c1.78-0.9,3.65-1.35,5.61-1.35c1.96,0,3.66,0.27,5.11,0.8c1.45,0.53,2.69,1.24,3.72,2.1l-3.39,4.51c-0.47-0.37-1.1-0.74-1.92-1.13 c-0.82-0.38-1.77-0.58-2.86-0.58c-0.97,0-1.85,0.25-2.65,0.75c-0.8,0.5-1.43,1.18-1.89,2.05c-0.47,0.87-0.7,1.87-0.7,3.01 c0,1.07,0.25,2.05,0.75,2.96c0.49,0.9,1.18,1.61,2.07,2.13c0.88,0.52,1.92,0.78,3.12,0.78c0.76,0,1.47-0.11,2.12-0.32 c0.65-0.22,1.21-0.53,1.67-0.93L21.52,41.85z"></path> <path class="st0" d="M25.21,32.58c0-2.24,0.52-4.24,1.57-6.01s2.52-3.16,4.41-4.18c1.89-1.02,4.07-1.53,6.53-1.53 c2.5,0,4.65,0.51,6.48,1.53c1.83,1.02,3.23,2.41,4.21,4.18c0.98,1.77,1.47,3.77,1.47,6.01c0,2.24-0.49,4.25-1.47,6.03 c-0.98,1.79-2.39,3.2-4.21,4.23c-1.83,1.04-4.02,1.55-6.58,1.55c-2.39,0-4.53-0.47-6.41-1.4c-1.88-0.94-3.35-2.29-4.41-4.06 C25.74,37.17,25.21,35.05,25.21,32.58z M32.24,32.63c0,1.14,0.23,2.16,0.7,3.08c0.46,0.92,1.1,1.64,1.89,2.18 c0.8,0.53,1.69,0.8,2.69,0.8c1.1,0,2.04-0.27,2.84-0.8c0.8-0.53,1.42-1.26,1.85-2.18c0.43-0.92,0.65-1.94,0.65-3.08 c0-1.17-0.22-2.21-0.65-3.11c-0.43-0.9-1.05-1.62-1.85-2.15c-0.8-0.53-1.74-0.8-2.84-0.8c-1,0-1.89,0.27-2.69,0.8 c-0.8,0.53-1.43,1.25-1.89,2.15C32.47,30.43,32.24,31.46,32.24,32.63z"></path> <path class="st0" d="M55.37,4.28h6.98V43.8h-6.98V4.28z"></path> <path class="st1" d="M69.38,14.15c0-1.04,0.41-1.89,1.22-2.55c0.82-0.67,1.69-1,2.62-1c0.93,0,1.79,0.33,2.57,1 c0.78,0.67,1.17,1.52,1.17,2.55s-0.39,1.88-1.17,2.53c-0.78,0.65-1.64,0.98-2.57,0.98c-0.93,0-1.8-0.32-2.62-0.98 C69.79,16.03,69.38,15.18,69.38,14.15z"></path> <rect x="69.53" y="21.91" class="st0" width="6.98" height="21.89"></rect> <g> <path class="st0" d="M104.13,22.16c-1.56-0.9-3.29-1.35-5.19-1.35c-1.83,0-3.46,0.25-4.88,0.75c-1.43,0.5-2.58,1.12-3.44,1.85 V4.28h-6.93V43.8h6.98v-2.26c0.81,0.76,1.7,1.43,2.72,1.94c1.25,0.62,2.78,0.93,4.61,0.93c2,0,3.86-0.49,5.59-1.45 c1.73-0.97,3.12-2.35,4.16-4.16c1.05-1.8,1.57-3.94,1.57-6.41c0-2.47-0.47-4.57-1.42-6.29C106.95,24.37,105.7,23.06,104.13,22.16 z M101.44,35.48c-0.53,0.94-1.24,1.67-2.12,2.21s-1.84,0.8-2.87,0.8c-0.9,0-1.71-0.12-2.44-0.37c-0.73-0.25-1.37-0.62-1.92-1.1 c-0.55-0.48-1.02-1.09-1.42-1.83v-5.36c0.3-0.73,0.72-1.36,1.27-1.88c0.55-0.52,1.21-0.92,2-1.2c0.78-0.28,1.62-0.43,2.52-0.43 c1.03,0,1.99,0.26,2.87,0.78c0.88,0.52,1.59,1.23,2.12,2.13c0.53,0.9,0.8,1.94,0.8,3.11C102.24,33.5,101.97,34.55,101.44,35.48z"></path> <path class="st0" d="M127.44,21.56c-1.08,0.5-2.17,1.21-3.27,2.13c-1.07,0.9-1.92,1.99-2.55,3.26l-0.54-5.04h-6.28V43.8h6.93 v-8.56c0-1.27,0.32-2.5,0.95-3.71c0.63-1.2,1.53-2.17,2.69-2.91c1.16-0.73,2.56-1,4.19-0.8l0.35-7.01 C129.34,20.81,128.52,21.06,127.44,21.56z"></path> </g> <path class="st0" d="M135.09,14.15c0-1.04,0.41-1.89,1.22-2.55s1.69-1,2.62-1c0.93,0,1.79,0.33,2.57,1 c0.78,0.67,1.17,1.52,1.17,2.55s-0.39,1.88-1.17,2.53c-0.78,0.65-1.64,0.98-2.57,0.98c-0.93,0-1.8-0.32-2.62-0.98 C135.5,16.03,135.09,15.18,135.09,14.15z M135.24,21.91h6.98V43.8h-6.98V21.91z"></path> </g> <g> <path class="st1" d="M12.13,63.19c-0.36,0.29-0.77,0.52-1.22,0.68c-0.45,0.16-0.93,0.24-1.42,0.24c-0.8,0-1.52-0.18-2.14-0.53 c-0.63-0.35-1.12-0.84-1.48-1.45c-0.36-0.61-0.54-1.32-0.54-2.1c0-0.79,0.19-1.49,0.56-2.1c0.37-0.61,0.87-1.1,1.49-1.45 c0.62-0.35,1.3-0.53,2.03-0.53c0.55,0,1.06,0.08,1.52,0.24c0.47,0.16,0.87,0.39,1.22,0.68l-0.5,0.64 c-0.28-0.23-0.61-0.41-0.98-0.56c-0.37-0.15-0.77-0.22-1.2-0.22c-0.59,0-1.12,0.15-1.61,0.44c-0.49,0.29-0.87,0.69-1.16,1.19 c-0.29,0.5-0.43,1.06-0.43,1.67c0,0.6,0.14,1.15,0.43,1.65c0.29,0.5,0.68,0.9,1.18,1.19c0.5,0.29,1.06,0.44,1.67,0.44 c0.4,0,0.77-0.06,1.12-0.19c0.35-0.13,0.66-0.3,0.94-0.51L12.13,63.19z"></path> <path class="st1" d="M15.3,56.12l0.1,2.4l-0.12-0.3c0.17-0.48,0.45-0.89,0.82-1.24c0.37-0.35,0.79-0.61,1.25-0.8 s0.9-0.28,1.33-0.28l-0.04,0.92c-0.6,0-1.15,0.13-1.63,0.4c-0.49,0.27-0.88,0.62-1.16,1.07c-0.29,0.45-0.43,0.95-0.43,1.51v4.15 h-0.94v-7.83H15.3z"></path> <path class="st1" d="M24.13,64.11c-0.81,0-1.54-0.18-2.16-0.54c-0.63-0.36-1.12-0.85-1.47-1.47c-0.35-0.62-0.53-1.32-0.53-2.09 c0-0.76,0.19-1.46,0.56-2.08c0.37-0.63,0.88-1.13,1.51-1.5c0.63-0.37,1.34-0.56,2.11-0.56c0.93,0,1.72,0.27,2.35,0.82 s1.09,1.26,1.37,2.14l-6.85,2.64l-0.28-0.68l6.27-2.44l-0.2,0.28c-0.23-0.53-0.57-1-1.03-1.38c-0.46-0.39-1.02-0.58-1.69-0.58 c-0.6,0-1.14,0.15-1.62,0.44c-0.48,0.29-0.87,0.69-1.15,1.18c-0.29,0.5-0.43,1.06-0.43,1.68c0,0.59,0.14,1.13,0.41,1.64 s0.66,0.91,1.15,1.22c0.49,0.31,1.06,0.46,1.7,0.46c0.43,0,0.84-0.08,1.23-0.24c0.39-0.16,0.74-0.37,1.05-0.62l0.48,0.68 c-0.37,0.29-0.8,0.53-1.29,0.72C25.14,64.02,24.64,64.11,24.13,64.11z"></path> <path class="st1" d="M33.45,64.11c-0.75,0-1.43-0.17-2.03-0.51c-0.61-0.34-1.09-0.82-1.44-1.43c-0.35-0.61-0.53-1.33-0.53-2.14 c0-0.87,0.19-1.61,0.56-2.23s0.88-1.1,1.52-1.42c0.64-0.33,1.37-0.49,2.18-0.49c0.69,0,1.35,0.21,1.97,0.62 c0.62,0.41,1.07,0.94,1.33,1.56l-0.14,0.28l0.12-2.22h0.84v7.83h-0.94v-2.42l0.2,0.36c-0.09,0.27-0.25,0.53-0.48,0.79 s-0.5,0.5-0.83,0.72c-0.33,0.22-0.69,0.39-1.08,0.52C34.31,64.05,33.89,64.11,33.45,64.11z M33.65,63.31 c0.59,0,1.12-0.12,1.59-0.37c0.47-0.25,0.86-0.59,1.15-1.03c0.29-0.44,0.46-0.95,0.5-1.52v-1.12c-0.11-0.49-0.32-0.93-0.63-1.32 c-0.31-0.39-0.7-0.69-1.15-0.92c-0.45-0.23-0.95-0.34-1.48-0.34c-0.59,0-1.13,0.14-1.62,0.41c-0.49,0.27-0.89,0.66-1.18,1.15 s-0.44,1.07-0.44,1.74c0,0.61,0.15,1.17,0.44,1.67s0.69,0.9,1.19,1.2C32.52,63.16,33.06,63.31,33.65,63.31z"></path> <path class="st1" d="M41.9,52.67h0.96v3.55h2.42v0.76h-2.42v6.97H41.9v-6.97h-1.66v-0.76h1.66V52.67z"></path> <path class="st1" d="M47.15,53.23c0-0.19,0.07-0.34,0.22-0.47c0.15-0.13,0.31-0.19,0.48-0.19c0.19,0,0.35,0.06,0.48,0.19 c0.13,0.13,0.2,0.28,0.2,0.47c0,0.2-0.07,0.36-0.2,0.49c-0.13,0.13-0.29,0.19-0.48,0.19c-0.17,0-0.33-0.07-0.48-0.2 C47.23,53.58,47.15,53.42,47.15,53.23z M47.35,56.12h0.94v7.83h-0.94V56.12z"></path> <path class="st1" d="M54.32,64.25l-3.97-8.13h1.1l3.26,7.11l-0.58-0.02l3.15-7.09h1.04l-3.89,8.13H54.32z"></path> <path class="st1" d="M63.7,64.11c-0.81,0-1.54-0.18-2.16-0.54c-0.63-0.36-1.12-0.85-1.47-1.47c-0.35-0.62-0.53-1.32-0.53-2.09 c0-0.76,0.19-1.46,0.56-2.08c0.37-0.63,0.88-1.13,1.51-1.5s1.34-0.56,2.11-0.56c0.93,0,1.72,0.27,2.35,0.82 c0.63,0.55,1.09,1.26,1.37,2.14l-6.85,2.64l-0.28-0.68l6.27-2.44l-0.2,0.28c-0.23-0.53-0.57-1-1.03-1.38 c-0.46-0.39-1.02-0.58-1.69-0.58c-0.6,0-1.14,0.15-1.62,0.44c-0.48,0.29-0.87,0.69-1.15,1.18c-0.29,0.5-0.43,1.06-0.43,1.68 c0,0.59,0.14,1.13,0.41,1.64s0.66,0.91,1.15,1.22c0.49,0.31,1.06,0.46,1.7,0.46c0.43,0,0.84-0.08,1.23-0.24 c0.39-0.16,0.74-0.37,1.05-0.62l0.48,0.68c-0.37,0.29-0.8,0.53-1.29,0.72C64.7,64.02,64.21,64.11,63.7,64.11z"></path> <path class="st1" d="M79.97,64.11c-0.75,0-1.45-0.2-2.1-0.59s-1.14-0.9-1.44-1.53l0.16-0.34v6.07h-0.94V56.06h0.84l0.1,2.56 l-0.18-0.58c0.35-0.63,0.85-1.15,1.52-1.55s1.4-0.61,2.18-0.61c0.75,0,1.42,0.18,2.02,0.54c0.6,0.36,1.08,0.85,1.43,1.47 c0.35,0.62,0.53,1.33,0.53,2.13c0,0.79-0.18,1.49-0.55,2.11c-0.37,0.62-0.86,1.11-1.48,1.45C81.44,63.94,80.74,64.11,79.97,64.11z M79.81,63.33c0.61,0,1.17-0.15,1.67-0.44c0.5-0.29,0.9-0.69,1.2-1.19c0.3-0.5,0.45-1.06,0.45-1.67c0-0.63-0.15-1.19-0.44-1.69 c-0.29-0.5-0.68-0.9-1.17-1.19c-0.49-0.29-1.04-0.44-1.65-0.44c-0.59,0-1.12,0.13-1.6,0.4c-0.48,0.27-0.87,0.63-1.16,1.08 c-0.29,0.45-0.47,0.97-0.52,1.54v0.64c0.04,0.55,0.21,1.05,0.51,1.5c0.3,0.45,0.69,0.81,1.16,1.07S79.25,63.33,79.81,63.33z"></path> <path class="st1" d="M86.62,48.73h0.94v15.23h-0.94V48.73z"></path> <path class="st1" d="M94.09,64.11c-0.75,0-1.43-0.17-2.03-0.51c-0.61-0.34-1.09-0.82-1.44-1.43c-0.35-0.61-0.53-1.33-0.53-2.14 c0-0.87,0.19-1.61,0.56-2.23s0.88-1.1,1.52-1.42c0.64-0.33,1.37-0.49,2.18-0.49c0.69,0,1.35,0.21,1.97,0.62 c0.62,0.41,1.07,0.94,1.33,1.56l-0.14,0.28l0.12-2.22h0.84v7.83h-0.94v-2.42l0.2,0.36c-0.09,0.27-0.25,0.53-0.48,0.79 c-0.23,0.26-0.51,0.5-0.83,0.72c-0.33,0.22-0.69,0.39-1.08,0.52C94.95,64.05,94.53,64.11,94.09,64.11z M94.29,63.31 c0.59,0,1.12-0.12,1.59-0.37c0.47-0.25,0.86-0.59,1.15-1.03c0.29-0.44,0.46-0.95,0.5-1.52v-1.12c-0.11-0.49-0.32-0.93-0.63-1.32 c-0.31-0.39-0.7-0.69-1.15-0.92c-0.45-0.23-0.95-0.34-1.48-0.34c-0.59,0-1.13,0.14-1.62,0.41c-0.49,0.27-0.89,0.66-1.18,1.15 s-0.44,1.07-0.44,1.74c0,0.61,0.15,1.17,0.44,1.67s0.69,0.9,1.19,1.2C93.16,63.16,93.7,63.31,94.29,63.31z"></path> <path class="st1" d="M104.25,64.03l-3.71-7.91h1.06l3.38,7.41L104.25,64.03z M102.49,67.72l5.11-11.6h0.92l-5.05,11.6H102.49z"></path> <path class="st1" d="M113.89,64.11c-0.81,0-1.54-0.18-2.16-0.54s-1.12-0.85-1.47-1.47c-0.35-0.62-0.53-1.32-0.53-2.09 c0-0.76,0.19-1.46,0.56-2.08c0.37-0.63,0.88-1.13,1.51-1.5c0.63-0.37,1.34-0.56,2.11-0.56c0.93,0,1.72,0.27,2.35,0.82 c0.64,0.55,1.09,1.26,1.37,2.14l-6.85,2.64l-0.28-0.68l6.27-2.44l-0.2,0.28c-0.22-0.53-0.57-1-1.03-1.38 c-0.46-0.39-1.03-0.58-1.69-0.58c-0.6,0-1.14,0.15-1.62,0.44c-0.48,0.29-0.87,0.69-1.15,1.18c-0.29,0.5-0.43,1.06-0.43,1.68 c0,0.59,0.14,1.13,0.41,1.64c0.27,0.51,0.66,0.91,1.15,1.22c0.49,0.31,1.06,0.46,1.7,0.46c0.43,0,0.84-0.08,1.23-0.24 c0.39-0.16,0.74-0.37,1.05-0.62l0.48,0.68c-0.37,0.29-0.8,0.53-1.29,0.72C114.89,64.02,114.39,64.11,113.89,64.11z"></path> <path class="st1" d="M120.78,56.12l0.1,2.4l-0.12-0.3c0.17-0.48,0.45-0.89,0.82-1.24c0.37-0.35,0.79-0.61,1.25-0.8 c0.46-0.19,0.9-0.28,1.33-0.28l-0.04,0.92c-0.6,0-1.14,0.13-1.63,0.4c-0.49,0.27-0.87,0.62-1.16,1.07 c-0.29,0.45-0.43,0.95-0.43,1.51v4.15h-0.94v-7.83H120.78z"></path> <path class="st1" d="M128.37,64.11c-0.45,0-0.93-0.08-1.42-0.25c-0.49-0.17-0.9-0.44-1.2-0.81l0.44-0.62 c0.27,0.28,0.58,0.5,0.95,0.67c0.37,0.17,0.76,0.25,1.17,0.25c0.31,0,0.6-0.04,0.87-0.13c0.27-0.09,0.5-0.24,0.67-0.45 c0.17-0.21,0.26-0.5,0.26-0.86c0-0.37-0.1-0.66-0.31-0.86c-0.21-0.2-0.47-0.36-0.78-0.49s-0.65-0.24-0.99-0.35 c-0.57-0.19-1.04-0.44-1.41-0.76c-0.37-0.32-0.55-0.78-0.55-1.36c0-0.43,0.1-0.8,0.31-1.12c0.21-0.32,0.49-0.57,0.85-0.75 c0.36-0.18,0.77-0.27,1.22-0.27c0.41,0,0.82,0.07,1.23,0.2c0.41,0.13,0.78,0.36,1.11,0.68l-0.42,0.66 c-0.21-0.29-0.5-0.49-0.85-0.6c-0.35-0.11-0.67-0.17-0.93-0.18c-0.23,0-0.46,0.05-0.71,0.14c-0.25,0.09-0.45,0.23-0.62,0.41 c-0.17,0.18-0.25,0.42-0.25,0.71c0,0.31,0.09,0.56,0.26,0.75c0.17,0.19,0.4,0.35,0.67,0.47c0.27,0.12,0.56,0.23,0.85,0.34 c0.39,0.12,0.75,0.26,1.09,0.43c0.34,0.17,0.62,0.39,0.84,0.66s0.33,0.64,0.33,1.09s-0.1,0.86-0.3,1.23 c-0.2,0.37-0.5,0.65-0.89,0.86C129.47,64.01,128.97,64.11,128.37,64.11z"></path> </g> </g> </svg> 