<?xml version="1.0" standalone="no"?>
<!DOCTYPE svg PUBLIC "-//W3C//DTD SVG 1.0//EN" "http://www.w3.org/TR/2001/REC-SVG-20010904/DTD/svg10.dtd">
<svg xmlns="http://www.w3.org/2000/svg" xmlns:xlink="http://www.w3.org/1999/xlink" id="body_1" width="410" height="307">

<g transform="matrix(2.0884356 0 0 2.0884356 51.499996 -0)">
	<g>
        <path d="M143.7 73.5C 143.7 112.4 112.299995 144 73.5 144C 34.7 144 3.300003 112.4 3.300003 73.5C 3.3 34.6 34.7 3 73.5 3C 112.3 3 143.7 34.6 143.7 73.5" stroke="none" fill="#EC8E24" fill-rule="nonzero" />
        <path d="M99.9 99.5C 97 101.8 93.4 103.6 89.1 105C 84.799995 106.4 80.6 107.1 76.4 107.1C 69 107.1 62.5 105.7 57 103C 51.5 100.3 47.2 96.3 44.2 91.2C 41.2 86.1 39.7 79.899994 39.7 72.6C 39.7 65.299995 41.3 59.1 44.600002 54C 47.9 48.9 52.2 45 57.4 42.3C 62.7 39.6 68.3 38.3 74.100006 38.3C 79.90001 38.3 85.00001 39.1 89.3 40.7C 93.600006 42.3 97.3 44.4 100.4 47L100.4 47L90.4 60.4C 89 59.300003 87.1 58.2 84.700005 57C 82.3 55.9 79.4 55.3 76.200005 55.3C 73.3 55.3 70.700005 56 68.3 57.5C 65.9 59 64 61 62.700005 63.6C 61.300003 66.2 60.600006 69.2 60.600006 72.6C 60.600006 75.799995 61.300007 78.7 62.800007 81.4C 64.3 84.1 66.3 86.200005 69.00001 87.700005C 71.600006 89.200005 74.700005 90.00001 78.30001 90.00001C 80.60001 90.00001 82.70001 89.700005 84.60001 89.00001C 86.500015 88.40001 88.20001 87.40001 89.60001 86.200005L89.60001 86.200005L99.9 99.5z" stroke="none" fill="#FFFFFF" fill-rule="nonzero" />
	</g>
</g>
</svg>